<svg width="320" height="169" viewBox="0 0 320 169" fill="none" xmlns="http://www.w3.org/2000/svg">
<g filter="url(#filter0_f_2_858)">
<rect x="54.0857" y="54.7909" width="211.829" height="60" rx="10" fill="#8CC5F9" fill-opacity="0.22"/>
</g>
<rect x="35" y="29.5" width="250" height="60" rx="10" fill="#8CC5F9"/>
<path d="M132.328 65.16C131.293 65.16 130.413 65.0107 129.688 64.712C128.963 64.4133 128.413 64.0187 128.04 63.528C127.667 63.0373 127.469 62.504 127.448 61.928C127.448 61.832 127.48 61.752 127.544 61.688C127.619 61.624 127.704 61.592 127.8 61.592H129.928C130.056 61.592 130.157 61.6133 130.232 61.656C130.317 61.6987 130.408 61.7733 130.504 61.88C130.643 62.136 130.856 62.3493 131.144 62.52C131.443 62.68 131.837 62.76 132.328 62.76C132.904 62.76 133.347 62.6747 133.656 62.504C133.965 62.3227 134.12 62.0773 134.12 61.768C134.12 61.544 134.04 61.3627 133.88 61.224C133.72 61.0747 133.464 60.9467 133.112 60.84C132.76 60.7227 132.253 60.5947 131.592 60.456C130.301 60.2 129.336 59.8107 128.696 59.288C128.056 58.7653 127.736 58.0187 127.736 57.048C127.736 56.3867 127.917 55.8 128.28 55.288C128.653 54.7653 129.176 54.36 129.848 54.072C130.531 53.784 131.32 53.64 132.216 53.64C133.155 53.64 133.965 53.8053 134.648 54.136C135.341 54.456 135.869 54.8613 136.232 55.352C136.605 55.832 136.803 56.3067 136.824 56.776C136.824 56.872 136.792 56.9573 136.728 57.032C136.664 57.096 136.584 57.128 136.488 57.128H134.248C134.013 57.128 133.832 57.032 133.704 56.84C133.64 56.616 133.475 56.4293 133.208 56.28C132.941 56.12 132.611 56.04 132.216 56.04C131.768 56.04 131.421 56.12 131.176 56.28C130.931 56.44 130.808 56.6747 130.808 56.984C130.808 57.2933 130.968 57.5387 131.288 57.72C131.608 57.8907 132.205 58.0667 133.08 58.248C134.083 58.4293 134.877 58.6587 135.464 58.936C136.061 59.2027 136.499 59.5547 136.776 59.992C137.064 60.4187 137.208 60.9627 137.208 61.624C137.208 62.3493 137 62.9787 136.584 63.512C136.168 64.0453 135.592 64.456 134.856 64.744C134.12 65.0213 133.277 65.16 132.328 65.16ZM142.472 65.16C141.171 65.16 140.147 64.8133 139.4 64.12C138.654 63.416 138.27 62.3973 138.248 61.064V60.568C138.291 59.2987 138.686 58.3067 139.432 57.592C140.179 56.8773 141.187 56.52 142.456 56.52C143.374 56.52 144.147 56.7067 144.776 57.08C145.416 57.4427 145.891 57.9493 146.2 58.6C146.52 59.24 146.68 59.9707 146.68 60.792V61.192C146.68 61.3093 146.638 61.4107 146.552 61.496C146.478 61.5707 146.382 61.608 146.264 61.608H141.192V61.704C141.203 62.184 141.315 62.5733 141.528 62.872C141.742 63.16 142.046 63.304 142.44 63.304C142.696 63.304 142.899 63.256 143.048 63.16C143.208 63.0533 143.358 62.92 143.496 62.76C143.592 62.6533 143.667 62.5893 143.72 62.568C143.784 62.536 143.88 62.52 144.008 62.52H146.104C146.2 62.52 146.28 62.552 146.344 62.616C146.419 62.6693 146.456 62.7387 146.456 62.824C146.456 63.1013 146.296 63.4267 145.976 63.8C145.667 64.1733 145.208 64.4933 144.6 64.76C144.003 65.0267 143.294 65.16 142.472 65.16ZM143.736 59.976V59.944C143.736 59.432 143.624 59.0373 143.4 58.76C143.176 58.472 142.862 58.328 142.456 58.328C142.051 58.328 141.736 58.472 141.512 58.76C141.299 59.0373 141.192 59.432 141.192 59.944V59.976H143.736ZM152.019 65.16C150.718 65.16 149.694 64.8133 148.947 64.12C148.2 63.416 147.816 62.3973 147.795 61.064V60.568C147.838 59.2987 148.232 58.3067 148.979 57.592C149.726 56.8773 150.734 56.52 152.003 56.52C152.92 56.52 153.694 56.7067 154.323 57.08C154.963 57.4427 155.438 57.9493 155.747 58.6C156.067 59.24 156.227 59.9707 156.227 60.792V61.192C156.227 61.3093 156.184 61.4107 156.099 61.496C156.024 61.5707 155.928 61.608 155.811 61.608H150.739V61.704C150.75 62.184 150.862 62.5733 151.075 62.872C151.288 63.16 151.592 63.304 151.987 63.304C152.243 63.304 152.446 63.256 152.595 63.16C152.755 63.0533 152.904 62.92 153.043 62.76C153.139 62.6533 153.214 62.5893 153.267 62.568C153.331 62.536 153.427 62.52 153.555 62.52H155.651C155.747 62.52 155.827 62.552 155.891 62.616C155.966 62.6693 156.003 62.7387 156.003 62.824C156.003 63.1013 155.843 63.4267 155.523 63.8C155.214 64.1733 154.755 64.4933 154.147 64.76C153.55 65.0267 152.84 65.16 152.019 65.16ZM153.283 59.976V59.944C153.283 59.432 153.171 59.0373 152.947 58.76C152.723 58.472 152.408 58.328 152.003 58.328C151.598 58.328 151.283 58.472 151.059 58.76C150.846 59.0373 150.739 59.432 150.739 59.944V59.976H153.283ZM161.613 55.528C161.496 55.528 161.395 55.4907 161.309 55.416C161.235 55.3307 161.197 55.2293 161.197 55.112V53.624C161.197 53.5067 161.235 53.4107 161.309 53.336C161.395 53.2507 161.496 53.208 161.613 53.208H163.709C163.827 53.208 163.923 53.2507 163.997 53.336C164.083 53.4107 164.125 53.5067 164.125 53.624V55.112C164.125 55.2293 164.083 55.3307 163.997 55.416C163.923 55.4907 163.827 55.528 163.709 55.528H161.613ZM159.629 68.04C159.512 68.04 159.416 68.0027 159.341 67.928C159.267 67.8533 159.229 67.7573 159.229 67.64V66.264C159.229 66.1573 159.267 66.0613 159.341 65.976C159.416 65.9013 159.512 65.864 159.629 65.864H160.269C160.621 65.864 160.867 65.768 161.005 65.576C161.144 65.384 161.213 65.1067 161.213 64.744V57.08C161.213 56.9627 161.251 56.8667 161.325 56.792C161.411 56.7173 161.507 56.68 161.613 56.68H163.709C163.827 56.68 163.923 56.7173 163.997 56.792C164.072 56.8667 164.109 56.9627 164.109 57.08V64.808C164.109 65.8427 163.8 66.6373 163.181 67.192C162.563 67.7573 161.699 68.04 160.589 68.04H159.629ZM169.943 65.16C168.599 65.16 167.565 64.8507 166.839 64.232C166.125 63.6027 165.735 62.712 165.671 61.56C165.661 61.4213 165.655 61.1813 165.655 60.84C165.655 60.4987 165.661 60.2587 165.671 60.12C165.735 58.9893 166.135 58.1093 166.871 57.48C167.618 56.84 168.642 56.52 169.943 56.52C171.245 56.52 172.263 56.84 172.999 57.48C173.746 58.1093 174.151 58.9893 174.215 60.12C174.237 60.3973 174.247 60.6373 174.247 60.84C174.247 61.0427 174.237 61.2827 174.215 61.56C174.151 62.712 173.757 63.6027 173.031 64.232C172.317 64.8507 171.287 65.16 169.943 65.16ZM169.943 63.144C170.381 63.144 170.706 63.0107 170.919 62.744C171.133 62.4667 171.255 62.0453 171.287 61.48C171.298 61.3733 171.303 61.16 171.303 60.84C171.303 60.52 171.298 60.3067 171.287 60.2C171.255 59.6453 171.133 59.2293 170.919 58.952C170.706 58.6747 170.381 58.536 169.943 58.536C169.506 58.536 169.181 58.6747 168.967 58.952C168.754 59.2293 168.631 59.6453 168.599 60.2L168.583 60.84L168.599 61.48C168.631 62.0453 168.754 62.4667 168.967 62.744C169.181 63.0107 169.506 63.144 169.943 63.144ZM180.971 65.16C179.894 65.16 179.067 64.808 178.491 64.104V64.6C178.491 64.7067 178.454 64.8027 178.379 64.888C178.305 64.9627 178.209 65 178.091 65H176.187C176.07 65 175.969 64.9627 175.883 64.888C175.809 64.8133 175.771 64.7173 175.771 64.6V54.04C175.771 53.9227 175.809 53.8267 175.883 53.752C175.969 53.6773 176.07 53.64 176.187 53.64H178.251C178.369 53.64 178.465 53.6773 178.539 53.752C178.614 53.8267 178.651 53.9227 178.651 54.04V57.448C179.238 56.8293 180.011 56.52 180.971 56.52C181.995 56.52 182.806 56.856 183.403 57.528C184.001 58.1893 184.321 59.1013 184.363 60.264C184.374 60.4027 184.379 60.5947 184.379 60.84C184.379 61.0747 184.374 61.2613 184.363 61.4C184.321 62.6053 184.001 63.5333 183.403 64.184C182.817 64.8347 182.006 65.16 180.971 65.16ZM180.043 62.936C180.523 62.936 180.865 62.7973 181.067 62.52C181.281 62.232 181.403 61.8373 181.435 61.336C181.446 61.2293 181.451 61.064 181.451 60.84C181.451 60.616 181.446 60.4507 181.435 60.344C181.403 59.8427 181.281 59.4533 181.067 59.176C180.865 58.888 180.523 58.744 180.043 58.744C179.595 58.744 179.254 58.8827 179.019 59.16C178.795 59.4267 178.673 59.768 178.651 60.184C178.641 60.3227 178.635 60.52 178.635 60.776C178.635 61.032 178.641 61.2347 178.651 61.384C178.673 61.832 178.795 62.2053 179.019 62.504C179.243 62.792 179.585 62.936 180.043 62.936ZM189.4 65.16C188.525 65.16 187.795 65.0373 187.208 64.792C186.621 64.5467 186.184 64.2533 185.896 63.912C185.619 63.5707 185.48 63.2613 185.48 62.984C185.48 62.8773 185.517 62.792 185.592 62.728C185.677 62.6533 185.768 62.616 185.864 62.616H187.8C187.864 62.616 187.917 62.6373 187.96 62.68C188.141 62.7973 188.243 62.8667 188.264 62.888C188.467 63.0373 188.653 63.1547 188.824 63.24C189.005 63.3147 189.219 63.352 189.464 63.352C189.752 63.352 189.987 63.2987 190.168 63.192C190.36 63.0747 190.456 62.9147 190.456 62.712C190.456 62.5413 190.403 62.4027 190.296 62.296C190.2 62.1893 190.008 62.088 189.72 61.992C189.443 61.8853 189.016 61.7787 188.44 61.672C186.595 61.2987 185.672 60.4453 185.672 59.112C185.672 58.6747 185.811 58.2587 186.088 57.864C186.376 57.4587 186.792 57.1333 187.336 56.888C187.891 56.6427 188.552 56.52 189.32 56.52C190.099 56.52 190.771 56.6427 191.336 56.888C191.912 57.1227 192.349 57.4107 192.648 57.752C192.947 58.0827 193.096 58.3867 193.096 58.664C193.096 58.76 193.059 58.8453 192.984 58.92C192.92 58.9947 192.84 59.032 192.744 59.032H190.984C190.888 59.032 190.813 59.0107 190.76 58.968C190.632 58.904 190.504 58.824 190.376 58.728C190.184 58.6 190.013 58.504 189.864 58.44C189.725 58.3653 189.544 58.328 189.32 58.328C189.053 58.328 188.845 58.3867 188.696 58.504C188.547 58.6213 188.472 58.7707 188.472 58.952C188.472 59.112 188.515 59.2453 188.6 59.352C188.696 59.448 188.883 59.544 189.16 59.64C189.448 59.736 189.88 59.8373 190.456 59.944C191.501 60.1253 192.259 60.4507 192.728 60.92C193.208 61.3787 193.448 61.9173 193.448 62.536C193.448 63.336 193.091 63.976 192.376 64.456C191.672 64.9253 190.68 65.16 189.4 65.16Z" fill="white"/>
<defs>
<filter id="filter0_f_2_858" x="0.0856934" y="0.790894" width="319.829" height="168" filterUnits="userSpaceOnUse" color-interpolation-filters="sRGB">
<feFlood flood-opacity="0" result="BackgroundImageFix"/>
<feBlend mode="normal" in="SourceGraphic" in2="BackgroundImageFix" result="shape"/>
<feGaussianBlur stdDeviation="27" result="effect1_foregroundBlur_2_858"/>
</filter>
</defs>
</svg>
