<svg width="320" height="169" viewBox="0 0 320 169" fill="none" xmlns="http://www.w3.org/2000/svg">
<g filter="url(#filter0_f_2_1902)">
<rect x="54.0857" y="54.2909" width="211.829" height="60" rx="10" fill="#5F7A7E" fill-opacity="0.22"/>
</g>
<rect x="35" y="29" width="250" height="60" rx="10" fill="#8CC5F9"/>
<path d="M120.728 64.66C119.203 64.66 118.003 64.292 117.128 63.556C116.264 62.82 115.805 61.7427 115.752 60.324C115.741 60.036 115.736 59.5667 115.736 58.916C115.736 58.2547 115.741 57.7747 115.752 57.476C115.805 56.0893 116.269 55.0227 117.144 54.276C118.029 53.5187 119.224 53.14 120.728 53.14C121.677 53.14 122.525 53.2947 123.272 53.604C124.029 53.9133 124.627 54.3613 125.064 54.948C125.501 55.5347 125.731 56.228 125.752 57.028C125.752 57.124 125.715 57.204 125.64 57.268C125.576 57.332 125.496 57.364 125.4 57.364H123.128C122.979 57.364 122.867 57.3373 122.792 57.284C122.728 57.22 122.669 57.108 122.616 56.948C122.467 56.4253 122.237 56.0627 121.928 55.86C121.629 55.6467 121.229 55.54 120.728 55.54C119.523 55.54 118.899 56.212 118.856 57.556C118.845 57.844 118.84 58.2867 118.84 58.884C118.84 59.4813 118.845 59.9347 118.856 60.244C118.899 61.588 119.523 62.26 120.728 62.26C121.219 62.26 121.619 62.1533 121.928 61.94C122.248 61.7267 122.477 61.364 122.616 60.852C122.659 60.692 122.717 60.5853 122.792 60.532C122.867 60.468 122.979 60.436 123.128 60.436H125.4C125.496 60.436 125.576 60.468 125.64 60.532C125.715 60.596 125.752 60.676 125.752 60.772C125.731 61.572 125.501 62.2653 125.064 62.852C124.627 63.4387 124.029 63.8867 123.272 64.196C122.525 64.5053 121.677 64.66 120.728 64.66ZM131.209 64.66C129.865 64.66 128.83 64.3507 128.105 63.732C127.39 63.1027 127.001 62.212 126.937 61.06C126.926 60.9213 126.921 60.6813 126.921 60.34C126.921 59.9987 126.926 59.7587 126.937 59.62C127.001 58.4893 127.401 57.6093 128.137 56.98C128.884 56.34 129.908 56.02 131.209 56.02C132.51 56.02 133.529 56.34 134.265 56.98C135.012 57.6093 135.417 58.4893 135.481 59.62C135.502 59.8973 135.513 60.1373 135.513 60.34C135.513 60.5427 135.502 60.7827 135.481 61.06C135.417 62.212 135.022 63.1027 134.297 63.732C133.582 64.3507 132.553 64.66 131.209 64.66ZM131.209 62.644C131.646 62.644 131.972 62.5107 132.185 62.244C132.398 61.9667 132.521 61.5453 132.553 60.98C132.564 60.8733 132.569 60.66 132.569 60.34C132.569 60.02 132.564 59.8067 132.553 59.7C132.521 59.1453 132.398 58.7293 132.185 58.452C131.972 58.1747 131.646 58.036 131.209 58.036C130.772 58.036 130.446 58.1747 130.233 58.452C130.02 58.7293 129.897 59.1453 129.865 59.7L129.849 60.34L129.865 60.98C129.897 61.5453 130.02 61.9667 130.233 62.244C130.446 62.5107 130.772 62.644 131.209 62.644ZM137.437 64.5C137.33 64.5 137.234 64.4627 137.149 64.388C137.074 64.3027 137.037 64.2067 137.037 64.1V56.58C137.037 56.4627 137.074 56.3667 137.149 56.292C137.234 56.2173 137.33 56.18 137.437 56.18H139.405C139.522 56.18 139.618 56.2173 139.693 56.292C139.768 56.3667 139.805 56.4627 139.805 56.58V57.188C140.093 56.836 140.461 56.5533 140.909 56.34C141.368 56.1267 141.89 56.02 142.477 56.02C143.085 56.02 143.624 56.1587 144.093 56.436C144.573 56.7133 144.946 57.124 145.213 57.668C145.49 58.212 145.629 58.868 145.629 59.636V64.1C145.629 64.2067 145.592 64.3027 145.517 64.388C145.442 64.4627 145.346 64.5 145.229 64.5H143.101C142.984 64.5 142.882 64.4627 142.797 64.388C142.722 64.3133 142.685 64.2173 142.685 64.1V59.732C142.685 59.252 142.568 58.884 142.333 58.628C142.109 58.372 141.778 58.244 141.341 58.244C140.914 58.244 140.578 58.3773 140.333 58.644C140.088 58.9 139.965 59.2627 139.965 59.732V64.1C139.965 64.2067 139.928 64.3027 139.853 64.388C139.778 64.4627 139.682 64.5 139.565 64.5H137.437ZM151.671 64.5C149.409 64.5 148.279 63.4387 148.279 61.316V58.356H147.015C146.908 58.356 146.812 58.3187 146.727 58.244C146.652 58.1587 146.615 58.0627 146.615 57.956V56.58C146.615 56.4627 146.652 56.3667 146.727 56.292C146.812 56.2173 146.908 56.18 147.015 56.18H148.279V53.54C148.279 53.4227 148.316 53.3267 148.391 53.252C148.476 53.1773 148.572 53.14 148.679 53.14H150.647C150.764 53.14 150.86 53.1773 150.935 53.252C151.009 53.3267 151.047 53.4227 151.047 53.54V56.18H153.047C153.164 56.18 153.26 56.2173 153.335 56.292C153.42 56.3667 153.463 56.4627 153.463 56.58V57.956C153.463 58.0733 153.42 58.1693 153.335 58.244C153.26 58.3187 153.164 58.356 153.047 58.356H151.047V61.076C151.047 61.4493 151.116 61.732 151.255 61.924C151.393 62.116 151.617 62.212 151.927 62.212H153.191C153.308 62.212 153.404 62.2547 153.479 62.34C153.553 62.4147 153.591 62.5107 153.591 62.628V64.1C153.591 64.2067 153.553 64.3027 153.479 64.388C153.404 64.4627 153.308 64.5 153.191 64.5H151.671ZM157.393 64.66C156.827 64.66 156.31 64.5533 155.841 64.34C155.382 64.116 155.019 63.812 154.753 63.428C154.497 63.044 154.369 62.6227 154.369 62.164C154.369 61.4387 154.667 60.852 155.265 60.404C155.873 59.9453 156.705 59.6307 157.761 59.46L159.745 59.156V58.964C159.745 58.5693 159.665 58.2813 159.505 58.1C159.345 57.9187 159.073 57.828 158.689 57.828C158.475 57.828 158.294 57.8653 158.145 57.94C158.006 58.0147 157.846 58.1267 157.665 58.276C157.526 58.3933 157.403 58.4787 157.297 58.532C157.254 58.6067 157.201 58.644 157.137 58.644H155.281C155.174 58.644 155.083 58.612 155.009 58.548C154.945 58.4733 154.918 58.388 154.929 58.292C154.939 58.004 155.083 57.684 155.361 57.332C155.638 56.9693 156.059 56.66 156.625 56.404C157.19 56.148 157.889 56.02 158.721 56.02C160.043 56.02 161.025 56.3133 161.665 56.9C162.305 57.476 162.625 58.26 162.625 59.252V64.1C162.625 64.2067 162.587 64.3027 162.513 64.388C162.438 64.4627 162.342 64.5 162.225 64.5H160.257C160.15 64.5 160.054 64.4627 159.969 64.388C159.894 64.3027 159.857 64.2067 159.857 64.1V63.54C159.622 63.8707 159.297 64.1427 158.881 64.356C158.465 64.5587 157.969 64.66 157.393 64.66ZM158.193 62.772C158.662 62.772 159.041 62.6173 159.329 62.308C159.627 61.9987 159.777 61.5507 159.777 60.964V60.772L158.449 60.996C157.553 61.1667 157.105 61.4867 157.105 61.956C157.105 62.2013 157.206 62.3987 157.409 62.548C157.622 62.6973 157.883 62.772 158.193 62.772ZM168.237 64.66C167.021 64.66 166.034 64.34 165.277 63.7C164.53 63.0493 164.13 62.148 164.077 60.996L164.061 60.356L164.077 59.7C164.12 58.548 164.52 57.6467 165.277 56.996C166.034 56.3453 167.021 56.02 168.237 56.02C169.165 56.02 169.944 56.1853 170.573 56.516C171.202 56.8467 171.672 57.2413 171.981 57.7C172.29 58.148 172.456 58.5587 172.477 58.932C172.488 59.0493 172.45 59.1507 172.365 59.236C172.28 59.3107 172.178 59.348 172.061 59.348H169.917C169.8 59.348 169.709 59.3213 169.645 59.268C169.581 59.2147 169.522 59.1293 169.469 59.012C169.352 58.7133 169.197 58.4947 169.005 58.356C168.824 58.2173 168.589 58.148 168.301 58.148C167.48 58.148 167.053 58.692 167.021 59.78L167.005 60.388L167.021 60.916C167.032 61.4707 167.144 61.8813 167.357 62.148C167.57 62.404 167.885 62.532 168.301 62.532C168.61 62.532 168.85 62.468 169.021 62.34C169.202 62.2013 169.352 61.9773 169.469 61.668C169.522 61.5507 169.581 61.4653 169.645 61.412C169.709 61.3587 169.8 61.332 169.917 61.332H172.061C172.168 61.332 172.264 61.3693 172.349 61.444C172.434 61.5187 172.477 61.6093 172.477 61.716C172.477 62.0467 172.328 62.4467 172.029 62.916C171.741 63.3747 171.277 63.78 170.637 64.132C169.997 64.484 169.197 64.66 168.237 64.66ZM178.218 64.5C175.956 64.5 174.826 63.4387 174.826 61.316V58.356H173.562C173.455 58.356 173.359 58.3187 173.274 58.244C173.199 58.1587 173.162 58.0627 173.162 57.956V56.58C173.162 56.4627 173.199 56.3667 173.274 56.292C173.359 56.2173 173.455 56.18 173.562 56.18H174.826V53.54C174.826 53.4227 174.863 53.3267 174.938 53.252C175.023 53.1773 175.119 53.14 175.226 53.14H177.194C177.311 53.14 177.407 53.1773 177.482 53.252C177.556 53.3267 177.594 53.4227 177.594 53.54V56.18H179.594C179.711 56.18 179.807 56.2173 179.882 56.292C179.967 56.3667 180.01 56.4627 180.01 56.58V57.956C180.01 58.0733 179.967 58.1693 179.882 58.244C179.807 58.3187 179.711 58.356 179.594 58.356H177.594V61.076C177.594 61.4493 177.663 61.732 177.802 61.924C177.94 62.116 178.164 62.212 178.474 62.212H179.738C179.855 62.212 179.951 62.2547 180.026 62.34C180.1 62.4147 180.138 62.5107 180.138 62.628V64.1C180.138 64.2067 180.1 64.3027 180.026 64.388C179.951 64.4627 179.855 64.5 179.738 64.5H178.218ZM187.843 64.66C186.904 64.66 186.147 64.3453 185.571 63.716C184.995 63.0867 184.707 62.196 184.707 61.044V56.58C184.707 56.4627 184.744 56.3667 184.819 56.292C184.904 56.2173 185 56.18 185.107 56.18H187.235C187.352 56.18 187.448 56.2173 187.523 56.292C187.608 56.3667 187.651 56.4627 187.651 56.58V60.948C187.651 61.94 188.094 62.436 188.979 62.436C189.406 62.436 189.736 62.308 189.971 62.052C190.216 61.7853 190.339 61.4173 190.339 60.948V56.58C190.339 56.4627 190.376 56.3667 190.451 56.292C190.536 56.2173 190.638 56.18 190.755 56.18H192.867C192.984 56.18 193.08 56.2173 193.155 56.292C193.23 56.3667 193.267 56.4627 193.267 56.58V64.1C193.267 64.2067 193.23 64.3027 193.155 64.388C193.08 64.4627 192.984 64.5 192.867 64.5H190.915C190.798 64.5 190.696 64.4627 190.611 64.388C190.536 64.3133 190.499 64.2173 190.499 64.1V63.492C189.944 64.2707 189.059 64.66 187.843 64.66ZM198.572 64.66C197.697 64.66 196.967 64.5373 196.38 64.292C195.793 64.0467 195.356 63.7533 195.068 63.412C194.791 63.0707 194.652 62.7613 194.652 62.484C194.652 62.3773 194.689 62.292 194.764 62.228C194.849 62.1533 194.94 62.116 195.036 62.116H196.972C197.036 62.116 197.089 62.1373 197.132 62.18C197.313 62.2973 197.415 62.3667 197.436 62.388C197.639 62.5373 197.825 62.6547 197.996 62.74C198.177 62.8147 198.391 62.852 198.636 62.852C198.924 62.852 199.159 62.7987 199.34 62.692C199.532 62.5747 199.628 62.4147 199.628 62.212C199.628 62.0413 199.575 61.9027 199.468 61.796C199.372 61.6893 199.18 61.588 198.892 61.492C198.615 61.3853 198.188 61.2787 197.612 61.172C195.767 60.7987 194.844 59.9453 194.844 58.612C194.844 58.1747 194.983 57.7587 195.26 57.364C195.548 56.9587 195.964 56.6333 196.508 56.388C197.063 56.1427 197.724 56.02 198.492 56.02C199.271 56.02 199.943 56.1427 200.508 56.388C201.084 56.6227 201.521 56.9107 201.82 57.252C202.119 57.5827 202.268 57.8867 202.268 58.164C202.268 58.26 202.231 58.3453 202.156 58.42C202.092 58.4947 202.012 58.532 201.916 58.532H200.156C200.06 58.532 199.985 58.5107 199.932 58.468C199.804 58.404 199.676 58.324 199.548 58.228C199.356 58.1 199.185 58.004 199.036 57.94C198.897 57.8653 198.716 57.828 198.492 57.828C198.225 57.828 198.017 57.8867 197.868 58.004C197.719 58.1213 197.644 58.2707 197.644 58.452C197.644 58.612 197.687 58.7453 197.772 58.852C197.868 58.948 198.055 59.044 198.332 59.14C198.62 59.236 199.052 59.3373 199.628 59.444C200.673 59.6253 201.431 59.9507 201.9 60.42C202.38 60.8787 202.62 61.4173 202.62 62.036C202.62 62.836 202.263 63.476 201.548 63.956C200.844 64.4253 199.852 64.66 198.572 64.66Z" fill="white"/>
<defs>
<filter id="filter0_f_2_1902" x="0.0856934" y="0.290894" width="319.829" height="168" filterUnits="userSpaceOnUse" color-interpolation-filters="sRGB">
<feFlood flood-opacity="0" result="BackgroundImageFix"/>
<feBlend mode="normal" in="SourceGraphic" in2="BackgroundImageFix" result="shape"/>
<feGaussianBlur stdDeviation="27" result="effect1_foregroundBlur_2_1902"/>
</filter>
</defs>
</svg>
