<svg width="149" height="41" viewBox="0 0 149 41" fill="none" xmlns="http://www.w3.org/2000/svg">
<rect x="1" y="1.32007" width="146.737" height="37.76" rx="18.88" stroke="#8CC5F9" stroke-width="2"/>
<path d="M39.014 25.3201C38.9073 25.3201 38.8167 25.2827 38.742 25.2081C38.6673 25.1334 38.63 25.0427 38.63 24.9361V14.5201C38.63 14.4027 38.662 14.3067 38.726 14.2321C38.8007 14.1574 38.8967 14.1201 39.014 14.1201H40.31C40.5127 14.1201 40.6727 14.2214 40.79 14.4241L43.878 20.1521L46.966 14.4241C47.0833 14.2214 47.2433 14.1201 47.446 14.1201H48.726C48.8433 14.1201 48.9393 14.1574 49.014 14.2321C49.0887 14.3067 49.126 14.4027 49.126 14.5201V24.9361C49.126 25.0534 49.0887 25.1494 49.014 25.2241C48.9393 25.2881 48.8433 25.3201 48.726 25.3201H47.35C47.2433 25.3201 47.1527 25.2827 47.078 25.2081C47.0033 25.1334 46.966 25.0427 46.966 24.9361V18.0561L44.742 22.2801C44.6247 22.5147 44.4487 22.6321 44.214 22.6321H43.542C43.318 22.6321 43.1367 22.5147 42.998 22.2801L40.774 18.0561V24.9361C40.774 25.0427 40.7367 25.1334 40.662 25.2081C40.598 25.2827 40.5073 25.3201 40.39 25.3201H39.014ZM55.1184 25.4801C53.8597 25.4801 52.889 25.1601 52.2064 24.5201C51.5237 23.8801 51.1557 22.9947 51.1024 21.8641L51.0864 21.1601L51.1024 20.4561C51.1557 19.3361 51.529 18.4561 52.2224 17.8161C52.9157 17.1654 53.881 16.8401 55.1184 16.8401C56.345 16.8401 57.305 17.1654 57.9984 17.8161C58.6917 18.4561 59.065 19.3361 59.1184 20.4561C59.129 20.5841 59.1344 20.8187 59.1344 21.1601C59.1344 21.5014 59.129 21.7361 59.1184 21.8641C59.065 22.9947 58.697 23.8801 58.0144 24.5201C57.3317 25.1601 56.3664 25.4801 55.1184 25.4801ZM55.1184 23.8641C55.6837 23.8641 56.1157 23.6881 56.4144 23.3361C56.7237 22.9841 56.889 22.4667 56.9104 21.7841C56.921 21.6774 56.9264 21.4694 56.9264 21.1601C56.9264 20.8507 56.921 20.6427 56.9104 20.5361C56.889 19.8534 56.7237 19.3361 56.4144 18.9841C56.105 18.6214 55.673 18.4401 55.1184 18.4401C54.553 18.4401 54.1157 18.6214 53.8064 18.9841C53.497 19.3361 53.3317 19.8534 53.3104 20.5361L53.2944 21.1601L53.3104 21.7841C53.3317 22.4667 53.497 22.9841 53.8064 23.3361C54.1157 23.6881 54.553 23.8641 55.1184 23.8641ZM61.2907 25.3201C61.1841 25.3201 61.0934 25.2827 61.0187 25.2081C60.9441 25.1334 60.9067 25.0427 60.9067 24.9361V17.4001C60.9067 17.2827 60.9441 17.1867 61.0187 17.1121C61.0934 17.0374 61.1841 17.0001 61.2907 17.0001H62.6027C62.7201 17.0001 62.8161 17.0374 62.8907 17.1121C62.9654 17.1867 63.0027 17.2827 63.0027 17.4001V18.0561C63.5361 17.3521 64.3041 17.0001 65.3067 17.0001H65.9787C66.0961 17.0001 66.1867 17.0374 66.2507 17.1121C66.3254 17.1761 66.3627 17.2667 66.3627 17.3841V18.5521C66.3627 18.6587 66.3254 18.7494 66.2507 18.8241C66.1867 18.8987 66.0961 18.9361 65.9787 18.9361H64.7147C64.2134 18.9361 63.8187 19.0801 63.5307 19.3681C63.2427 19.6561 63.0987 20.0507 63.0987 20.5521V24.9361C63.0987 25.0427 63.0614 25.1334 62.9867 25.2081C62.9121 25.2827 62.8214 25.3201 62.7147 25.3201H61.2907ZM71.1005 25.4801C69.9058 25.4801 68.9565 25.1387 68.2525 24.4561C67.5592 23.7734 67.1912 22.8027 67.1485 21.5441L67.1325 21.1441C67.1325 19.8107 67.4792 18.7601 68.1725 17.9921C68.8765 17.2241 69.8472 16.8401 71.0845 16.8401C72.3538 16.8401 73.3298 17.2241 74.0125 17.9921C74.7058 18.7601 75.0525 19.7841 75.0525 21.0641V21.4001C75.0525 21.5067 75.0152 21.5974 74.9405 21.6721C74.8658 21.7467 74.7698 21.7841 74.6525 21.7841H69.3405V21.9121C69.3618 22.5094 69.5218 23.0054 69.8205 23.4001C70.1298 23.7841 70.5512 23.9761 71.0845 23.9761C71.6925 23.9761 72.1885 23.7307 72.5725 23.2401C72.6685 23.1227 72.7432 23.0534 72.7965 23.0321C72.8498 23.0001 72.9405 22.9841 73.0685 22.9841H74.4765C74.5725 22.9841 74.6525 23.0107 74.7165 23.0641C74.7912 23.1174 74.8285 23.1921 74.8285 23.2881C74.8285 23.5441 74.6738 23.8481 74.3645 24.2001C74.0658 24.5414 73.6338 24.8401 73.0685 25.0961C72.5032 25.3521 71.8472 25.4801 71.1005 25.4801ZM72.8445 20.4241V20.3921C72.8445 19.7627 72.6845 19.2614 72.3645 18.8881C72.0552 18.5041 71.6285 18.3121 71.0845 18.3121C70.5405 18.3121 70.1138 18.5041 69.8045 18.8881C69.4952 19.2614 69.3405 19.7627 69.3405 20.3921V20.4241H72.8445ZM80.7111 15.6401C80.6044 15.6401 80.5138 15.6027 80.4391 15.5281C80.3644 15.4534 80.3271 15.3627 80.3271 15.2561V14.0881C80.3271 13.9707 80.3644 13.8747 80.4391 13.8001C80.5138 13.7254 80.6044 13.6881 80.7111 13.6881H82.1831C82.3004 13.6881 82.3964 13.7254 82.4711 13.8001C82.5458 13.8747 82.5831 13.9707 82.5831 14.0881V15.2561C82.5831 15.3627 82.5404 15.4534 82.4551 15.5281C82.3804 15.6027 82.2898 15.6401 82.1831 15.6401H80.7111ZM80.7751 25.3201C80.6684 25.3201 80.5778 25.2827 80.5031 25.2081C80.4284 25.1334 80.3911 25.0427 80.3911 24.9361V17.3841C80.3911 17.2667 80.4284 17.1761 80.5031 17.1121C80.5778 17.0374 80.6684 17.0001 80.7751 17.0001H82.1351C82.2418 17.0001 82.3324 17.0374 82.4071 17.1121C82.4818 17.1867 82.5191 17.2774 82.5191 17.3841V24.9361C82.5191 25.0427 82.4818 25.1334 82.4071 25.2081C82.3324 25.2827 82.2418 25.3201 82.1351 25.3201H80.7751ZM85.0095 25.3201C84.9028 25.3201 84.8122 25.2827 84.7375 25.2081C84.6628 25.1334 84.6255 25.0427 84.6255 24.9361V17.3841C84.6255 17.2667 84.6628 17.1761 84.7375 17.1121C84.8122 17.0374 84.9028 17.0001 85.0095 17.0001H86.3375C86.4548 17.0001 86.5455 17.0374 86.6095 17.1121C86.6842 17.1761 86.7215 17.2667 86.7215 17.3841V18.0401C87.3722 17.2401 88.2628 16.8401 89.3935 16.8401C90.3748 16.8401 91.1535 17.1601 91.7295 17.8001C92.3055 18.4401 92.5935 19.3201 92.5935 20.4401V24.9361C92.5935 25.0427 92.5562 25.1334 92.4815 25.2081C92.4175 25.2827 92.3268 25.3201 92.2095 25.3201H90.7695C90.6628 25.3201 90.5722 25.2827 90.4975 25.2081C90.4228 25.1334 90.3855 25.0427 90.3855 24.9361V20.5361C90.3855 19.9174 90.2308 19.4374 89.9215 19.0961C89.6228 18.7441 89.1908 18.5681 88.6255 18.5681C88.0815 18.5681 87.6442 18.7441 87.3135 19.0961C86.9828 19.4481 86.8175 19.9281 86.8175 20.5361V24.9361C86.8175 25.0427 86.7802 25.1334 86.7055 25.2081C86.6415 25.2827 86.5508 25.3201 86.4335 25.3201H85.0095ZM95.7961 25.3201C95.6894 25.3201 95.5988 25.2827 95.5241 25.2081C95.4494 25.1334 95.4121 25.0427 95.4121 24.9361V18.7121H94.1161C94.0094 18.7121 93.9188 18.6747 93.8441 18.6001C93.7694 18.5254 93.7321 18.4347 93.7321 18.3281V17.3841C93.7321 17.2774 93.7694 17.1867 93.8441 17.1121C93.9188 17.0374 94.0094 17.0001 94.1161 17.0001H95.4121V16.3601C95.4121 15.3894 95.6734 14.6694 96.1961 14.2001C96.7188 13.7201 97.5081 13.4801 98.5641 13.4801H99.6681C99.7748 13.4801 99.8654 13.5174 99.9401 13.5921C100.015 13.6667 100.052 13.7574 100.052 13.8641V14.8081C100.052 14.9147 100.015 15.0054 99.9401 15.0801C99.8654 15.1547 99.7748 15.1921 99.6681 15.1921H98.6441C98.2281 15.1921 97.9348 15.2934 97.7641 15.4961C97.5934 15.6987 97.5081 16.0134 97.5081 16.4401V17.0001H99.5081C99.6148 17.0001 99.7054 17.0374 99.7801 17.1121C99.8548 17.1867 99.8921 17.2774 99.8921 17.3841V18.3281C99.8921 18.4347 99.8548 18.5254 99.7801 18.6001C99.7054 18.6747 99.6148 18.7121 99.5081 18.7121H97.5081V24.9361C97.5081 25.0427 97.4708 25.1334 97.3961 25.2081C97.3321 25.2827 97.2414 25.3201 97.1241 25.3201H95.7961ZM104.728 25.4801C103.469 25.4801 102.498 25.1601 101.816 24.5201C101.133 23.8801 100.765 22.9947 100.712 21.8641L100.696 21.1601L100.712 20.4561C100.765 19.3361 101.138 18.4561 101.832 17.8161C102.525 17.1654 103.49 16.8401 104.728 16.8401C105.954 16.8401 106.914 17.1654 107.608 17.8161C108.301 18.4561 108.674 19.3361 108.728 20.4561C108.738 20.5841 108.744 20.8187 108.744 21.1601C108.744 21.5014 108.738 21.7361 108.728 21.8641C108.674 22.9947 108.306 23.8801 107.624 24.5201C106.941 25.1601 105.976 25.4801 104.728 25.4801ZM104.728 23.8641C105.293 23.8641 105.725 23.6881 106.024 23.3361C106.333 22.9841 106.498 22.4667 106.52 21.7841C106.53 21.6774 106.536 21.4694 106.536 21.1601C106.536 20.8507 106.53 20.6427 106.52 20.5361C106.498 19.8534 106.333 19.3361 106.024 18.9841C105.714 18.6214 105.282 18.4401 104.728 18.4401C104.162 18.4401 103.725 18.6214 103.416 18.9841C103.106 19.3361 102.941 19.8534 102.92 20.5361L102.904 21.1601L102.92 21.7841C102.941 22.4667 103.106 22.9841 103.416 23.3361C103.725 23.6881 104.162 23.8641 104.728 23.8641Z" fill="#8CC5F9"/>
</svg>
